<svg xmlns="http://www.w3.org/2000/svg" xmlns:xlink="http://www.w3.org/1999/xlink" width="500" zoomAndPan="magnify" viewBox="0 0 375 374.999991" height="500" preserveAspectRatio="xMidYMid meet" version="1.0"><defs><g/><clipPath id="2ac30d3096"><path d="M 98.371094 89 L 289.429688 89 L 289.429688 280 L 98.371094 280 Z M 98.371094 89 " clip-rule="nonzero"/></clipPath><clipPath id="cd35ae0be3"><path d="M 193.785156 279.910156 C 168.3125 279.910156 144.324219 269.992188 126.324219 251.957031 C 108.285156 233.957031 98.371094 209.96875 98.371094 184.492188 C 98.371094 159.019531 108.285156 135.03125 126.324219 117.03125 C 144.324219 98.992188 168.3125 89.078125 193.785156 89.078125 C 219.261719 89.078125 243.25 98.992188 261.25 117.03125 C 279.285156 135.070312 289.203125 159.019531 289.203125 184.492188 C 289.203125 209.96875 279.285156 233.957031 261.25 251.957031 C 243.25 269.992188 219.261719 279.910156 193.785156 279.910156 Z M 193.785156 94.796875 C 169.835938 94.796875 147.296875 104.140625 130.367188 121.074219 C 113.433594 138.003906 104.089844 160.542969 104.089844 184.492188 C 104.089844 208.441406 113.433594 230.980469 130.367188 247.914062 C 147.296875 264.84375 169.835938 274.1875 193.785156 274.1875 C 217.734375 274.1875 240.273438 264.84375 257.207031 247.914062 C 274.140625 230.980469 283.480469 208.441406 283.480469 184.492188 C 283.480469 160.542969 274.140625 138.003906 257.207031 121.074219 C 240.273438 104.140625 217.734375 94.796875 193.785156 94.796875 Z M 193.785156 94.796875 " clip-rule="nonzero"/></clipPath></defs><g clip-path="url(#2ac30d3096)"><g clip-path="url(#cd35ae0be3)"><path fill="#f5fffa" d="M 98.371094 89.078125 L 289.050781 89.078125 L 289.050781 279.757812 L 98.371094 279.757812 Z M 98.371094 89.078125 " fill-opacity="1" fill-rule="nonzero"/></g></g><g fill="#948d8d" fill-opacity="1"><g transform="translate(170.802269, 224.923461)"><g><path d="M 50.046875 -14.53125 L 17.578125 -14.53125 L 11.40625 0 L 0.09375 0 L 28.515625 -64.40625 L 39.65625 -64.40625 L 67.796875 0 L 56.21875 0 Z M 45.90625 -24.203125 L 33.765625 -52.8125 L 21.625 -24.203125 Z M 45.90625 -24.203125 "/></g></g></g><g fill="#f5fffa" fill-opacity="1"><g transform="translate(158.80227, 212.923462)"><g><path d="M 50.046875 -14.53125 L 17.578125 -14.53125 L 11.40625 0 L 0.09375 0 L 28.515625 -64.40625 L 39.65625 -64.40625 L 67.796875 0 L 56.21875 0 Z M 45.90625 -24.203125 L 33.765625 -52.8125 L 21.625 -24.203125 Z M 45.90625 -24.203125 "/></g></g></g></svg>