<?xml version="1.0" encoding="UTF-8"?>
<svg version="1.1" xmlns="http://www.w3.org/2000/svg" width="420" height="419">
<path d="M0 0 C1.19367188 0.52980469 2.38734375 1.05960938 3.6171875 1.60546875 C15.20144059 7.2309154 26.08438819 14.6115906 35 24 C35 24.66 35 25.32 35 26 C35.57878906 26.23976562 36.15757812 26.47953125 36.75390625 26.7265625 C44.93017258 31.36215002 49.21870628 41.46546565 52 50 C54.3934181 58.8197457 54.3934181 58.8197457 53 63 C53.66 63.33 54.32 63.66 55 64 C54.96744792 65.98567708 54.93489583 67.97135417 54.90234375 69.95703125 C54.91736783 72.20305461 54.91736783 72.20305461 56 75 C52.6223242 73.87410807 51.28636808 72.68056948 49 70 C49 69.01 49 68.02 49 67 C47.68 67 46.36 67 45 67 C44.16235732 65.04350603 43.33000941 63.08474444 42.5 61.125 C42.0359375 60.03445312 41.571875 58.94390625 41.09375 57.8203125 C40 55 40 55 40 53 C39.34 53 38.68 53 38 53 C37.01 50.525 37.01 50.525 36 48 C34.35 48 32.7 48 31 48 C30.01 46.02 30.01 46.02 29 44 C28.01 44.495 28.01 44.495 27 45 C27 44.34 27 43.68 27 43 C26.34 43 25.68 43 25 43 C25 43.66 25 44.32 25 45 C24.01 45 23.02 45 22 45 C21.87625 44.360625 21.7525 43.72125 21.625 43.0625 C21.41875 42.381875 21.2125 41.70125 21 41 C20.34 40.67 19.68 40.34 19 40 C19 39.34 19 38.68 19 38 C18.34 38 17.68 38 17 38 C17 37.01 17 36.02 17 35 C15.35 35 13.7 35 12 35 C12 34.34 12 33.68 12 33 C10.68 33 9.36 33 8 33 C7.34 32.34 6.68 31.68 6 31 C5.01 31.33 4.02 31.66 3 32 C2.67 31.01 2.34 30.02 2 29 C-0.64 29.99 -3.28 30.98 -6 32 C-6.33 31.34 -6.66 30.68 -7 30 C-9.31939207 29.2863409 -11.65523449 28.6252708 -14 28 C-15.67632417 27.35800351 -17.34750513 26.70105843 -19 26 C-19 26.99 -19 27.98 -19 29 C-20.32 28.67 -21.64 28.34 -23 28 C-23 27.34 -23 26.68 -23 26 C-23.61875 26.66 -24.2375 27.32 -24.875 28 C-29.24240721 30.79514062 -32.95182061 30.35288244 -38 30 C-38.33 29.34 -38.66 28.68 -39 28 C-39.48984375 28.30679688 -39.9796875 28.61359375 -40.484375 28.9296875 C-43.97224079 30.41365524 -47.51653804 30.72263042 -51.25 31.125 C-51.99507813 31.21136719 -52.74015625 31.29773438 -53.5078125 31.38671875 C-55.33777846 31.59786867 -57.16879879 31.79984545 -59 32 C-57.515 32.99 -57.515 32.99 -56 34 C-56.969375 34.268125 -57.93875 34.53625 -58.9375 34.8125 C-59.948125 35.204375 -60.95875 35.59625 -62 36 C-63.15811388 38.94729537 -63.15811388 38.94729537 -63 42 C-63.556875 41.79375 -64.11375 41.5875 -64.6875 41.375 C-67.69048654 40.88802921 -69.27125694 41.74058013 -72 43 C-73.485 43.495 -73.485 43.495 -75 44 C-75.99 44.99 -75.99 44.99 -77 46 C-77.33 45.34 -77.66 44.68 -78 44 C-78.598125 44.33 -79.19625 44.66 -79.8125 45 C-82 46 -82 46 -85 46 C-84.505 47.98 -84.505 47.98 -84 50 C-84.99 50 -85.98 50 -87 50 C-87 51.32 -87 52.64 -87 54 C-87.66 54 -88.32 54 -89 54 C-89 54.99 -89 55.98 -89 57 C-87.68 56.67 -86.36 56.34 -85 56 C-86.875 60.75 -86.875 60.75 -88 63 C-86.35 63.66 -84.7 64.32 -83 65 C-83 68.27275026 -83.29925156 70.846632 -84 74 C-84.66 74 -85.32 74 -86 74 C-86 74.66 -86 75.32 -86 76 C-86.66 76 -87.32 76 -88 76 C-87.835 77.010625 -87.67 78.02125 -87.5 79.0625 C-86.64521461 85.79393495 -86.55451066 90.03665306 -90 96 C-90.33 96.7425 -90.66 97.485 -91 98.25 C-92 100 -92 100 -95 102 C-95.72382467 104.05925139 -95.72382467 104.05925139 -96 106 C-95.34 106.33 -94.68 106.66 -94 107 C-94 106.01 -94 105.02 -94 104 C-92.35 104 -90.7 104 -89 104 C-88.76023437 104.64839844 -88.52046875 105.29679687 -88.2734375 105.96484375 C-87.20853941 108.18647238 -87.20853941 108.18647238 -85.0390625 108.50390625 C-83.84410156 108.53291016 -83.84410156 108.53291016 -82.625 108.5625 C-75.12230526 109.02051334 -67.69975836 110.51903859 -61 114 C-59.33678518 114.35015049 -57.66965451 114.68197057 -56 115 C-53.23267189 115.86818137 -50.59447156 116.70276422 -48 118 C-47.67 118.66 -47.34 119.32 -47 120 C-46.01 118.02 -46.01 118.02 -45 116 C-43.68 116.66 -42.36 117.32 -41 118 C-41.99 119.32 -42.98 120.64 -44 122 C-38.28781613 124.22914492 -32.92205576 124.89505784 -27 123 C-26.67 121.68 -26.34 120.36 -26 119 C-25.67 119.33 -25.34 119.66 -25 120 C-24.01 118.515 -24.01 118.515 -23 117 C-20.66666667 117 -18.33333333 117 -16 117 C-15.01 115.515 -15.01 115.515 -14 114 C-11.49609375 113.5234375 -11.49609375 113.5234375 -8.4375 113.375 C-6.82681641 113.27832031 -6.82681641 113.27832031 -5.18359375 113.1796875 C-4.13300781 113.12039062 -3.08242187 113.06109375 -2 113 C-0.33196006 112.84769002 1.33503022 112.68284194 3 112.5 C4.0209375 112.39171875 4.0209375 112.39171875 5.0625 112.28125 C7.04510613 112.041508 7.04510613 112.041508 9.078125 111.37890625 C11 111 11 111 13.75 112.4375 C14.4925 112.953125 15.235 113.46875 16 114 C16.33 113.01 16.66 112.02 17 111 C18.98 111.99 20.96 112.98 23 114 C19.6100192 117.06273018 16.72684657 117.60550995 12.25 118.1875 C11.07953125 118.34605469 9.9090625 118.50460938 8.703125 118.66796875 C7.36507812 118.83232422 7.36507812 118.83232422 6 119 C7.28390625 118.96519531 8.5678125 118.93039063 9.890625 118.89453125 C23.1864022 118.65009564 37.24383013 118.74794338 50 123 C50.2236337 124.41433206 50.42826476 125.83167618 50.625 127.25 C50.74101562 128.03890625 50.85703125 128.8278125 50.9765625 129.640625 C51.00373874 132.37636616 50.24689045 133.60319948 49 136 C48.6456169 138.62162955 48.49837103 141.21531466 48.34375 143.85546875 C48.17359375 144.91701172 48.17359375 144.91701172 48 146 C47.34 146.33 46.68 146.66 46 147 C45.67 146.34 45.34 145.68 45 145 C44.82984375 145.556875 44.6596875 146.11375 44.484375 146.6875 C41.41134549 156.36427376 37.93775962 164.90436373 28.81640625 170.2890625 C21.80442426 173.48993441 14.61844646 173.78044823 7 174 C7 174.66 7 175.32 7 176 C7.54914063 176.27070313 8.09828125 176.54140625 8.6640625 176.8203125 C11.25825121 178.13042118 13.81843068 179.49287709 16.375 180.875 C17.34824219 181.39964844 18.32148438 181.92429688 19.32421875 182.46484375 C21.45094517 183.68499482 23.27536356 184.92570067 25.1875 186.4375 C28.43210292 188.24005718 30.24015286 188.05108775 33.83203125 187.36328125 C37.53465276 186.74284197 41.25689685 186.92201868 45 187 C45.66 188.98 46.32 190.96 47 193 C49.0835213 187.68614524 49.64234759 182.57174839 50.125 176.9375 C50.20991699 175.98536621 50.29483398 175.03323242 50.38232422 174.05224609 C51.20098487 164.03230099 51.18487244 154.04473568 51 144 C51.66 144 52.32 144 53 144 C54.05404945 147.98196457 53.84098656 150.98195309 53 155 C53.66 155 54.32 155 55 155 C54.98428955 156.0355603 54.98428955 156.0355603 54.96826172 157.09204102 C54.92644303 160.24882299 54.90059198 163.40554645 54.875 166.5625 C54.84986328 168.19155273 54.84986328 168.19155273 54.82421875 169.85351562 C54.7887304 175.69134959 55.13824476 180.47431044 57 186 C56.69375228 189.4452868 56.46226454 190.53773546 54 193 C54.33 193.99 54.66 194.98 55 196 C55.68388177 202.5494831 54.4100384 207.9318676 52 214 C51.34 214 50.68 214 50 214 C49.85304688 214.97839844 49.85304688 214.97839844 49.703125 215.9765625 C48.73150524 221.65551248 47.45463454 225.29785854 44 230 C42.45032709 232.85123545 40.95068032 235.7244085 39.46484375 238.609375 C38 241 38 241 35 243 C33.79549696 245.55183404 33.79549696 245.55183404 33 248 C32.01 248 31.02 248 30 248 C29.89145383 250.39706123 29.81246843 252.78915838 29.75 255.1875 C29.69972656 256.19780273 29.69972656 256.19780273 29.6484375 257.22851562 C29.55057629 262.2439026 30.70496967 264.34457573 34 268 C34.25 271.3125 34.25 271.3125 34 274 C33.34 274 32.68 274 32 274 C32 274.99 32 275.98 32 277 C32.66 277 33.32 277 34 277 C34 277.66 34 278.32 34 279 C33.34 279 32.68 279 32 279 C32 279.99 32 280.98 32 282 C31.34 282 30.68 282 30 282 C29.87882813 282.69867188 29.75765625 283.39734375 29.6328125 284.1171875 C29.46523438 285.02726562 29.29765625 285.93734375 29.125 286.875 C28.88136719 288.23238281 28.88136719 288.23238281 28.6328125 289.6171875 C28 292 28 292 26 294 C25.64602048 295.61257339 25.36255372 297.24121217 25.125 298.875 C24.52039557 302.09335587 24.08869857 303.86695215 22.25 306.625 C19.35435714 308.39455953 17.33273623 308.30297602 14 308 C14.66 308.33 15.32 308.66 16 309 C16 309.99 16 310.98 16 312 C14.02 312 12.04 312 10 312 C10 312.66 10 313.32 10 314 C10.99 314.33 11.98 314.66 13 315 C13 314.34 13 313.68 13 313 C14.32 313 15.64 313 17 313 C16 316 16 316 15 317 C15.66 317.33 16.32 317.66 17 318 C17 318.66 17 319.32 17 320 C13.65477657 321.73028798 10.69942517 322.90008212 6.9375 323.4375 C3.88948519 323.73618053 3.88948519 323.73618053 2 326 C0.3364521 326.67441131 -1.33066942 327.3400321 -3 328 C-5.74795903 329.5702623 -8.36589335 331.2439289 -11 333 C-10.21625 332.79375 -9.4325 332.5875 -8.625 332.375 C-7.75875 332.25125 -6.8925 332.1275 -6 332 C-5.34 332.66 -4.68 333.32 -4 334 C-6.15732809 336.15732809 -7.11822443 336.48294825 -10 337.1875 C-10.70125 337.36667969 -11.4025 337.54585938 -12.125 337.73046875 C-14 338 -14 338 -16 337 C-16.33 337.99 -16.66 338.98 -17 340 C-18.98 340 -20.96 340 -23 340 C-23.33 340.66 -23.66 341.32 -24 342 C-26.65234375 342.4140625 -26.65234375 342.4140625 -29.9375 342.625 C-31.01902344 342.69976562 -32.10054687 342.77453125 -33.21484375 342.8515625 C-34.80840147 342.93649264 -36.40418067 343 -38 343 C-38.33 343.66 -38.66 344.32 -39 345 C-39 344.01 -39 343.02 -39 342 C-39.53367188 342.144375 -40.06734375 342.28875 -40.6171875 342.4375 C-47.76175661 344.21746186 -54.82419928 344.98389785 -62 343 C-64.29123689 342.49171868 -66.58480672 341.99518506 -68.87890625 341.5 C-71 341 -71 341 -74 340 C-75.134375 339.855625 -76.26875 339.71125 -77.4375 339.5625 C-81 339 -81 339 -82.91796875 338.02734375 C-85.2503726 336.8764578 -87.31717846 336.44622432 -89.875 336 C-93.7210678 335.28063239 -97.3168921 334.3474785 -101 333 C-101.99 332.67 -102.98 332.34 -104 332 C-104.33 330.35 -104.66 328.7 -105 327 C-103.35 327.33 -101.7 327.66 -100 328 C-100.33 326.68 -100.66 325.36 -101 324 C-102.65 324 -104.3 324 -106 324 C-106.495 322.515 -106.495 322.515 -107 321 C-109.00016466 319.79117904 -109.00016466 319.79117904 -111 319 C-111 318.34 -111 317.68 -111 317 C-111.66 317 -112.32 317 -113 317 C-113.495 315.515 -113.495 315.515 -114 314 C-114.48339844 313.52820313 -114.96679688 313.05640625 -115.46484375 312.5703125 C-117.24659385 310.74775897 -117.78455295 309.28441314 -118.5625 306.875 C-119.20420651 304.78521731 -119.20420651 304.78521731 -120 303 C-120.66 302.67 -121.32 302.34 -122 302 C-122 301.01 -122 300.02 -122 299 C-120.0625 299.8125 -120.0625 299.8125 -118 301 C-117.505 302.485 -117.505 302.485 -117 304 C-116.4225 303.855625 -115.845 303.71125 -115.25 303.5625 C-113.16666667 303.04166667 -111.08333333 302.52083333 -109 302 C-109 300.68 -109 299.36 -109 298 C-110.423125 298.0309375 -110.423125 298.0309375 -111.875 298.0625 C-115 298 -115 298 -117 297 C-117 296.01 -117 295.02 -117 294 C-117.99 293.67 -118.98 293.34 -120 293 C-120 292.01 -120 291.02 -120 290 C-120.928125 289.938125 -121.85625 289.87625 -122.8125 289.8125 C-126 289 -126 289 -127.875 286.4375 C-128.24625 285.633125 -128.6175 284.82875 -129 284 C-129 285.65 -129 287.3 -129 289 C-138 278.33333333 -138 278.33333333 -138 274 C-138.99 273.67 -139.98 273.34 -141 273 C-141 272.01 -141 271.02 -141 270 C-143.28801205 278.96269546 -138.07879923 287.31116167 -134.20703125 295.21484375 C-133 298 -133 298 -133 301 C-132.34 301 -131.68 301 -131 301 C-131 302.65 -131 304.3 -131 306 C-131.66 306 -132.32 306 -133 306 C-136 300.25 -136 300.25 -136 298 C-136.99 298.33 -137.98 298.66 -139 299 C-139 298.34 -139 297.68 -139 297 C-139.66 297 -140.32 297 -141 297 C-141 298.32 -141 299.64 -141 301 C-140.01 300.67 -139.02 300.34 -138 300 C-138.33 301.32 -138.66 302.64 -139 304 C-139.66 304 -140.32 304 -141 304 C-141.33 305.98 -141.66 307.96 -142 310 C-142.66 309.67 -143.32 309.34 -144 309 C-143.67 307.02 -143.34 305.04 -143 303 C-143.763125 303.185625 -144.52625 303.37125 -145.3125 303.5625 C-148 304 -148 304 -151 303 C-151.33 303.99 -151.66 304.98 -152 306 C-156.455 304.515 -156.455 304.515 -161 303 C-161 302.34 -161 301.68 -161 301 C-159.35 300.67 -157.7 300.34 -156 300 C-157.32 299.67 -158.64 299.34 -160 299 C-160 298.01 -160 297.02 -160 296 C-161.0725 296.495 -162.145 296.99 -163.25 297.5 C-166.25416808 298.88653911 -167.45934895 299 -171 299 C-170.67 295.04 -170.34 291.08 -170 287 C-169.34 287 -168.68 287 -168 287 C-167.67 288.32 -167.34 289.64 -167 291 C-166.01 289.02 -166.01 289.02 -165 287 C-165 288.32 -165 289.64 -165 291 C-164.01 290.34 -163.02 289.68 -162 289 C-162 288.01 -162 287.02 -162 286 C-161.01 285.67 -160.02 285.34 -159 285 C-160.32 283.35 -161.64 281.7 -163 280 C-161.68 279.67 -160.36 279.34 -159 279 C-159.99 279 -160.98 279 -162 279 C-162 278.34 -162 277.68 -162 277 C-161.01 276.67 -160.02 276.34 -159 276 C-158.113125 275.38125 -157.22625 274.7625 -156.3125 274.125 C-151.71345331 271.17466816 -147.02819288 269.57097229 -141.80859375 268.1015625 C-133.58379769 265.76231447 -129.30692479 263.64609656 -123.5625 257.3125 C-119.44471211 253.59644752 -115.43449494 253 -110 253 C-110.99 248.38 -111.98 243.76 -113 239 C-113.66 239 -114.32 239 -115 239 C-114.9175 238.278125 -114.835 237.55625 -114.75 236.8125 C-115.07749127 233.12822325 -116.49828568 231.64887398 -119 229 C-119.66 228.67 -120.32 228.34 -121 228 C-121 227.34 -121 226.68 -121 226 C-121.66 226 -122.32 226 -123 226 C-123.75592866 223.4082446 -124.07863543 221.08782906 -124.3125 218.375 C-124.98663854 212.56870997 -127.27878521 207.02957063 -130.15625 201.96484375 C-131.17695901 199.5879149 -131.0088249 198.33860691 -130.5625 195.8125 C-129.95160002 191.61950471 -130.22917832 188.01088547 -130.94140625 183.84765625 C-130.96074219 183.23792969 -130.98007813 182.62820312 -131 182 C-130.34 181.34 -129.68 180.68 -129 180 C-129.44414 178.12094617 -129.90277239 176.24426124 -130.4296875 174.38671875 C-131.03436147 171.85619962 -131.26121716 169.4694236 -131.4375 166.875 C-131.74471398 162.65727148 -132.49695321 158.78609201 -133.5234375 154.6875 C-135.33067316 146.45074881 -135.33931749 138.52174821 -135.1875 130.125 C-135.17240001 128.64714932 -135.15872116 127.16928341 -135.14648438 125.69140625 C-135.11395892 122.1272792 -135.06248246 118.56374304 -135 115 C-134.21882813 115.65097656 -133.43765625 116.30195313 -132.6328125 116.97265625 C-130.25594542 119.10893251 -130.25594542 119.10893251 -127.875 119.4375 C-126 120 -126 120 -124.25 122.375 C-123 125 -123 125 -123 128 C-122.34 128 -121.68 128 -121 128 C-120.27743171 123.51866426 -120.27743171 123.51866426 -120 119 C-120.763125 118.2575 -121.52625 117.515 -122.3125 116.75 C-125.07050774 113.92785255 -126.42921764 111.59035968 -128 108 C-128.33386719 107.27167969 -128.66773438 106.54335937 -129.01171875 105.79296875 C-130.23193632 102.3445278 -130.71037422 98.92639876 -131.125 95.3125 C-131.2084668 94.59771484 -131.29193359 93.88292969 -131.37792969 93.14648438 C-133.57551583 73.32336042 -131.1477556 47.58696111 -118.375 31.4375 C-99.56155191 11.00055639 -70.39058278 -6.24399116 -42.3515625 -8.015625 C-28.13382956 -8.33242427 -12.95222588 -5.90919259 0 0 Z M-10 25 C-9 27 -9 27 -9 27 Z M-77 36 C-76.67 36.99 -76.34 37.98 -76 39 C-75.67 38.01 -75.34 37.02 -75 36 C-75.66 36 -76.32 36 -77 36 Z M-74 36 C-73.34 36.66 -72.68 37.32 -72 38 C-71.67 37.34 -71.34 36.68 -71 36 C-71.99 36 -72.98 36 -74 36 Z M-83 40 C-83 40.66 -83 41.32 -83 42 C-83.99 42.495 -83.99 42.495 -85 43 C-83.68 43.33 -82.36 43.66 -81 44 C-81 42.68 -81 41.36 -81 40 C-81.66 40 -82.32 40 -83 40 Z M33 44 C33 47 33 47 33 47 Z M-95 50 C-94 52 -94 52 -94 52 Z M52 66 C52 66.66 52 67.32 52 68 C52.66 67.67 53.32 67.34 54 67 C53.34 66.67 52.68 66.34 52 66 Z M-87 71 C-86 74 -86 74 -86 74 Z M-73 118 C-69 119 -69 119 -69 119 Z M-67 119 C-67 119.33 -67 119.66 -67 120 C-65.35 120 -63.7 120 -62 120 C-62 119.67 -62 119.34 -62 119 C-63.65 119 -65.3 119 -67 119 Z M10 122 C9.67 122.66 9.34 123.32 9 124 C12.61867559 125.2062252 15.92506251 125.10816918 19.6875 125.0625 C20.38939453 125.05798828 21.09128906 125.05347656 21.81445312 125.04882812 C23.54300538 125.03706927 25.27151365 125.01913454 27 125 C23.36280395 122.57520264 21.14296518 122.61337423 16.8125 122.375 C15.54019531 122.30023438 14.26789063 122.22546875 12.95703125 122.1484375 C11.98121094 122.09945312 11.00539063 122.05046875 10 122 Z M-69 134 C-69 134.99 -69 135.98 -69 137 C-67.68 136.67 -66.36 136.34 -65 136 C-66.32 135.34 -67.64 134.68 -69 134 Z M-38 136 C-38.04063832 137.66617115 -38.042721 139.33388095 -38 141 C-38.66 141 -39.32 141 -40 141 C-40 146.61 -40 152.22 -40 158 C-41.65 158 -43.3 158 -45 158 C-45.495 160.475 -45.495 160.475 -46 163 C-46.33 161.35 -46.66 159.7 -47 158 C-48.7074998 159.28062485 -50.37373596 160.61767557 -52 162 C-52 162.66 -52 163.32 -52 164 C-52.70125 164.2475 -53.4025 164.495 -54.125 164.75 C-57.41286474 166.17950641 -60.15545943 167.81698049 -63 170 C-63 170.99 -63 171.98 -63 173 C-63.66 173 -64.32 173 -65 173 C-64.4360709 176.27078876 -63.54319569 177.86371562 -61 180 C-57.43153525 181.78423237 -52.88657427 180.90546322 -48.94140625 180.69726562 C-45.31995132 180.60722945 -43.45747169 180.62461948 -40.60546875 182.96484375 C-40.07566406 183.63644531 -39.54585938 184.30804688 -39 185 C-35.4774059 186.45762514 -31.75666863 186.26362587 -28 186 C-27.29230469 185.52304688 -26.58460938 185.04609375 -25.85546875 184.5546875 C-21.9025966 182.40250814 -18.18528279 182.2340467 -13.75 181.875 C-8.451398 181.87475905 -8.451398 181.87475905 -4 180 C-4 181.65 -4 183.3 -4 185 C-7.3 186.65 -10.6 188.3 -14 190 C-14 190.66 -14 191.32 -14 192 C-15.216875 191.79375 -16.43375 191.5875 -17.6875 191.375 C-21.3700459 190.90571981 -23.65856442 191.23100469 -27 193 C-27.99 193.495 -27.99 193.495 -29 194 C-29.65555119 196.52733235 -29.65555119 196.52733235 -30 199 C-33.5008943 198.91825827 -37.00015493 198.80549732 -40.5 198.6875 C-41.48226562 198.66494141 -42.46453125 198.64238281 -43.4765625 198.61914062 C-49.60762869 198.39433486 -54.44731581 197.68082574 -60 195 C-60.66 194.01 -61.32 193.02 -62 192 C-64.56282742 191.27034634 -64.56282742 191.27034634 -67 191 C-68.15570704 187.53287889 -68.32835293 184.4585044 -68.5625 180.8125 C-68.64628906 179.54019531 -68.73007813 178.26789063 -68.81640625 176.95703125 C-68.87699219 175.98121094 -68.93757813 175.00539062 -69 174 C-70.98 174.66 -72.96 175.32 -75 176 C-74.67 175.01 -74.34 174.02 -74 173 C-77.40648922 169.59351078 -87.72481572 170.56273732 -92.3125 170.3125 C-93.21806641 170.25255859 -94.12363281 170.19261719 -95.05664062 170.13085938 C-96.35311523 170.0602832 -96.35311523 170.0602832 -97.67578125 169.98828125 C-98.45864502 169.94227783 -99.24150879 169.89627441 -100.0480957 169.84887695 C-102.2392754 169.80566628 -102.2392754 169.80566628 -104 172 C-104 172.99 -104 173.98 -104 175 C-104.66 175 -105.32 175 -106 175 C-105.67 174.01 -105.34 173.02 -105 172 C-105.99 172 -106.98 172 -108 172 C-108.86358623 173.78141747 -108.86358623 173.78141747 -109 176 C-107.14567913 178.27144074 -107.14567913 178.27144074 -105 180 C-105 179.34 -105 178.68 -105 178 C-102.48916886 179.25541557 -102.12874554 180.50063488 -101 183 C-98.69 183 -96.38 183 -94 183 C-94.33 185.31 -94.66 187.62 -95 190 C-93.68 190.33 -92.36 190.66 -91 191 C-91 190.34 -91 189.68 -91 189 C-89.68 189 -88.36 189 -87 189 C-87 188.34 -87 187.68 -87 187 C-84.36 186.67 -81.72 186.34 -79 186 C-79 186.66 -79 187.32 -79 188 C-80.485 188.495 -80.485 188.495 -82 189 C-81.01 189 -80.02 189 -79 189 C-78.67 191.31 -78.34 193.62 -78 196 C-76.68 196 -75.36 196 -74 196 C-71.66365343 196.31151288 -69.32961443 196.64159778 -67 197 C-66.34 198.65 -65.68 200.3 -65 202 C-64.15405273 202.07516846 -64.15405273 202.07516846 -63.29101562 202.15185547 C-60.69337763 202.38640878 -58.09673353 202.63064446 -55.5 202.875 C-54.613125 202.95363281 -53.72625 203.03226562 -52.8125 203.11328125 C-48.67667703 203.50861727 -44.71144698 203.98946941 -40.69140625 205.05859375 C-32.73082101 207.08875358 -23.72759103 206.59805894 -15.94921875 203.96875 C-11.1923035 202.58827737 -6.47603979 202.78302589 -1.5625 202.875 C-0.64017578 202.88402344 0.28214844 202.89304687 1.23242188 202.90234375 C3.48855809 202.9257234 5.74413684 202.95849084 8 203 C8 201.68 8 200.36 8 199 C8.66 199 9.32 199 10 199 C10.66 197.35 11.32 195.7 12 194 C11.34 194 10.68 194 10 194 C9.01 189.545 9.01 189.545 8 185 C8.66 185 9.32 185 10 185 C8.58786056 180.50682906 6.62085301 178.00453761 3 175 C0.75421039 173.85468806 -1.51489493 172.86890324 -3.84765625 171.9140625 C-6.38322718 170.83725017 -8.64784474 169.42554864 -11 168 C-11.66 168 -12.32 168 -13 168 C-13 167.34 -13 166.68 -13 166 C-13.66 166 -14.32 166 -15 166 C-15.40605469 165.11054688 -15.40605469 165.11054688 -15.8203125 164.203125 C-16.98224105 162.03316571 -18.19984462 160.53798968 -19.875 158.75 C-24.81077603 153.09191528 -27.22986912 147.34820355 -28.5078125 139.98046875 C-28.9562698 137.69981031 -28.9562698 137.69981031 -31 135 C-34.7978531 134.43796817 -34.7978531 134.43796817 -38 136 Z M-3 136 C-2 138 -2 138 -2 138 Z M46 137 C46 137.66 46 138.32 46 139 C46.66 139 47.32 139 48 139 C48 138.34 48 137.68 48 137 C47.34 137 46.68 137 46 137 Z M-76 139 C-76.33 139.99 -76.66 140.98 -77 142 C-78.65 142.33 -80.3 142.66 -82 143 C-78.23988111 145.50674593 -75.3504848 145.62461051 -71 145 C-67.56520973 143.87624216 -64.28300042 142.50695101 -61 141 C-61 140.67 -61 140.34 -61 140 C-65.96073422 138.67713754 -70.91111512 138.91106803 -76 139 Z M-60 141 C-56 142 -56 142 -56 142 Z M-12 141 C-12 141.99 -12 142.98 -12 144 C-9.52733235 143.65555119 -9.52733235 143.65555119 -7 143 C-6.67 142.34 -6.34 141.68 -6 141 C-7.98 141 -9.96 141 -12 141 Z M-4 141 C-6.28168358 143.16163819 -6.28168358 143.16163819 -7 146 C-6.59130748 148.31749122 -6.59130748 148.31749122 -5 150 C-2.95365565 150.62764766 -2.95365565 150.62764766 -1 151 C-8.94670592 149.08411129 -8.94670592 149.08411129 -17 150 C-18.31105272 152.83442774 -18.31105272 152.83442774 -17.21484375 154.8671875 C-12.84344762 161.73843401 -8.04535495 166.58003279 0 169 C3.15855687 169.38630082 6.25945621 169.37560651 9.4375 169.3125 C10.24509766 169.31572266 11.05269531 169.31894531 11.88476562 169.32226562 C20.1399556 169.24909311 27.96968148 168.09154002 34 162 C38.28568742 155.5844558 39.1495587 149.62749349 39 142 C38.67 142 38.34 142 38 142 C37.34 144.31 36.68 146.62 36 149 C35.01 148.67 34.02 148.34 33 148 C32.67 148.99 32.34 149.98 32 151 C29.36 151 26.72 151 24 151 C24 151.99 24 152.98 24 154 C23.34 154 22.68 154 22 154 C22 152.02 22 150.04 22 148 C21.01 148.33 20.02 148.66 19 149 C18.34 148.67 17.68 148.34 17 148 C15.58405811 147.95468986 14.16614248 147.96146551 12.75 148 C9.05081565 148.04780852 5.63734939 147.74612295 2 147 C2 146.34 2 145.68 2 145 C2.99 145.33 3.98 145.66 5 146 C10.30861876 146.34249153 13.69183491 146.50038413 18 143 C18 142.34 18 141.68 18 141 C6.93241804 139.71826069 6.93241804 139.71826069 -4 141 Z M-66.75 145.4375 C-67.8225 145.953125 -68.895 146.46875 -70 147 C-69.34 147.66 -68.68 148.32 -68 149 C-65.03 147.68 -62.06 146.36 -59 145 C-63.19000879 143.91188703 -63.19000879 143.91188703 -66.75 145.4375 Z M-95 147 C-95 147.33 -95 147.66 -95 148 C-93.35 148 -91.7 148 -90 148 C-90 147.67 -90 147.34 -90 147 C-91.65 147 -93.3 147 -95 147 Z M-99 149 C-99.33 149.99 -99.66 150.98 -100 152 C-99.34 152 -98.68 152 -98 152 C-98.33 151.01 -98.66 150.02 -99 149 Z M-99 153 C-99.97474816 156.08961458 -99.97474816 156.08961458 -100 159 C-100.99 158.67 -101.98 158.34 -103 158 C-102.79338444 159.94056619 -102.79338444 159.94056619 -102 162 C-96.15750214 166.27996936 -88.99503957 166.75634115 -82 167 C-80.83791016 167.07734375 -80.83791016 167.07734375 -79.65234375 167.15625 C-71.33757453 167.5081979 -63.51394864 165.27319652 -57 160 C-54.55136689 157.28664979 -53.1565211 155.46956331 -52 152 C-53.134375 151.855625 -54.26875 151.71125 -55.4375 151.5625 C-59 151 -59 151 -60 150 C-62.86267567 149.92674832 -65.700719 149.90761795 -68.5625 149.9375 C-69.36880859 149.94201172 -70.17511719 149.94652344 -71.00585938 149.95117188 C-73.00393756 149.96299482 -75.00197783 149.98093086 -77 150 C-77 150.66 -77 151.32 -77 152 C-77.78375 151.67 -78.5675 151.34 -79.375 151 C-86.02167039 149.16643575 -93.27879977 148.59907675 -99 153 Z M-99 203 C-99 203.66 -99 204.32 -99 205 C-98.34 204.67 -97.68 204.34 -97 204 C-97.66 203.67 -98.32 203.34 -99 203 Z M21 206 C22 209 22 209 22 209 Z M-93 207 C-94.00217064 210.58327753 -94.00217064 210.58327753 -93 214 C-92.01 214 -91.02 214 -90 214 C-89.30840599 212.15274948 -89.30840599 212.15274948 -89 210 C-89.66 209.01 -90.32 208.02 -91 207 C-91.66 207 -92.32 207 -93 207 Z M-86 209 C-86 210.32 -86 211.64 -86 213 C-85.34 213 -84.68 213 -84 213 C-84.391875 214.010625 -84.78375 215.02125 -85.1875 216.0625 C-86.40645178 220.36773394 -85.0846525 223.205281 -83 227 C-80.51608678 231.69386542 -78.53843507 235.61564931 -78 241 C-77.34 241 -76.68 241 -76 241 C-73.69 246.61 -71.38 252.22 -69 258 C-68.34 258 -67.68 258 -67 258 C-66.67 258.99 -66.34 259.98 -66 261 C-65.34 261 -64.68 261 -64 261 C-63.34 262.32 -62.68 263.64 -62 265 C-61.34 265 -60.68 265 -60 265 C-58.375 267.5 -58.375 267.5 -57 270 C-56.34 269.34 -55.68 268.68 -55 268 C-54.01 269.98 -53.02 271.96 -52 274 C-49.9600281 272.63676257 -49.9600281 272.63676257 -48 271 C-48 270.34 -48 269.68 -48 269 C-47.29875 269.515625 -46.5975 270.03125 -45.875 270.5625 C-42.33918503 272.33040749 -40.78547522 271.80542026 -37 271 C-34.75 271.25 -34.75 271.25 -33 272 C-32.01 273.485 -32.01 273.485 -31 275 C-30.34 274.67 -29.68 274.34 -29 274 C-29.33 273.34 -29.66 272.68 -30 272 C-29.01 272.33 -28.02 272.66 -27 273 C-26.01 272.67 -25.02 272.34 -24 272 C-24 272.99 -24 273.98 -24 275 C-23.34 275 -22.68 275 -22 275 C-21.34 273.35 -20.68 271.7 -20 270 C-18.68 270.66 -17.36 271.32 -16 272 C-15.5875 271.030625 -15.175 270.06125 -14.75 269.0625 C-14.1725 268.051875 -13.595 267.04125 -13 266 C-12.34902344 265.85820312 -11.69804687 265.71640625 -11.02734375 265.5703125 C-8.83679109 265.19204303 -8.83679109 265.19204303 -7.76953125 263.14453125 C-5.97243904 258.76549432 -4.48785179 254.75655495 -4 250 C-3.34 250 -2.68 250 -2 250 C-1.67 250.66 -1.34 251.32 -1 252 C0.4606285 249.35261084 1 248.10551666 1 245 C2.65 244.67 4.3 244.34 6 244 C6.268125 243.071875 6.53625 242.14375 6.8125 241.1875 C8 238 8 238 9.6875 236.4375 C10.120625 235.963125 10.55375 235.48875 11 235 C10.76956136 232.34533951 10.76956136 232.34533951 10 230 C10.99 229.67 11.98 229.34 13 229 C13.33 227.02 13.66 225.04 14 223 C13.34 223 12.68 223 12 223 C12.66 221.02 13.32 219.04 14 217 C13.01 217 12.02 217 11 217 C11.33 215.35 11.66 213.7 12 212 C11.01 212 10.02 212 9 212 C9 212.66 9 213.32 9 214 C8.34 214 7.68 214 7 214 C5.40121925 215.74574388 3.98584121 217.59881337 2.53515625 219.46875 C1 221 1 221 -2 221 C-1.505 220.484375 -1.01 219.96875 -0.5 219.4375 C1.49649241 216.19319983 1.21564385 213.73782666 1 210 C0.071875 210 -0.85625 210 -1.8125 210 C-5.43479058 210 -9.05398789 209.98551067 -12.67578125 209.9296875 C-14.55468371 209.91107134 -16.43359018 209.89285793 -18.3125 209.875 C-19.25029297 209.85824219 -20.18808594 209.84148437 -21.15429688 209.82421875 C-26.27040052 209.78816446 -30.14721121 210.23400041 -35 212 C-37.33640176 211.34416793 -39.66989091 210.67784992 -42 210 C-43.68698082 210.61344757 -45.35965807 211.27095914 -47 212 C-47.99 211.34 -48.98 210.68 -50 210 C-51.66821323 210.32550502 -53.33499557 210.65846063 -55 211 C-55.66 210.34 -56.32 209.68 -57 209 C-58.32 209 -59.64 209 -61 209 C-61.66 209.66 -62.32 210.32 -63 211 C-65.125 210.625 -65.125 210.625 -67 210 C-67.33 211.65 -67.66 213.3 -68 215 C-68.99 215.33 -69.98 215.66 -71 216 C-69.35 216.66 -67.7 217.32 -66 218 C-66 218.99 -66 219.98 -66 221 C-65.21625 221.226875 -64.4325 221.45375 -63.625 221.6875 C-60.27673917 223.36163042 -60.2740639 224.57595327 -59 228 C-56.68767578 230.56249975 -56.68767578 230.56249975 -54 233 C-53.236875 233.86625 -52.47375 234.7325 -51.6875 235.625 C-46.22087994 240.45596656 -40.33279549 241.32498102 -33.19921875 241.59375 C-30.56573878 242.08021877 -29.67341761 242.96373779 -28 245 C-27.91298828 244.10087891 -27.91298828 244.10087891 -27.82421875 243.18359375 C-26.62978148 240.01918411 -24.80610062 239.52092081 -21.8125 238.0625 C-17.30107301 235.75405554 -13.7565477 233.37126076 -10 230 C-9.01 229.505 -9.01 229.505 -8 229 C-8 228.01 -8 227.02 -8 226 C-6.515 226.495 -6.515 226.495 -5 227 C-4.505 225.515 -4.505 225.515 -4 224 C-2.35 224.33 -0.7 224.66 1 225 C0.566875 225.62648438 0.13375 226.25296875 -0.3125 226.8984375 C-0.869375 227.71570313 -1.42625 228.53296875 -2 229.375 C-2.556875 230.18710937 -3.11375 230.99921875 -3.6875 231.8359375 C-5.17285844 233.86318187 -5.17285844 233.86318187 -5 236 C-6.485 236.495 -6.485 236.495 -8 237 C-8 237.66 -8 238.32 -8 239 C-9.98 239 -11.96 239 -14 239 C-14 240.65 -14 242.3 -14 244 C-14.721875 244.12375 -15.44375 244.2475 -16.1875 244.375 C-18.93747747 244.90684562 -18.93747747 244.90684562 -21.1875 245.875 C-24.59156814 247.23662726 -28.06010929 248.16720975 -31.59765625 249.12109375 C-34.0750874 249.89555293 -34.0750874 249.89555293 -36.12109375 251.59765625 C-38 253 -38 253 -41 253 C-41.34611328 252.07574219 -41.34611328 252.07574219 -41.69921875 251.1328125 C-43.38411262 248.37019372 -44.79665741 247.95111775 -47.8125 246.875 C-48.66457031 246.56304687 -49.51664063 246.25109375 -50.39453125 245.9296875 C-51.25433594 245.62289062 -52.11414063 245.31609375 -53 245 C-60.59403089 242.18739597 -66.39513229 236.71357013 -70.3125 229.625 C-70.539375 229.08875 -70.76625 228.5525 -71 228 C-71.66 228 -72.32 228 -73 228 C-74.12880057 224.68885166 -75.21302675 221.41021743 -76 218 C-75.34 218 -74.68 218 -74 218 C-74.47304682 213.74257863 -76.8863822 211.74294902 -80 209 C-83 207.66666667 -83 207.66666667 -86 209 Z M24 212 C25.32 212 26.64 212 28 212 C28.33 211.34 28.66 210.68 29 210 C26.67642489 209.81509993 26.67642489 209.81509993 24 212 Z M-20 241 C-20 241.66 -20 242.32 -20 243 C-18.35 242.67 -16.7 242.34 -15 242 C-15.33 241.34 -15.66 240.68 -16 240 C-18.0745356 239.8509288 -18.0745356 239.8509288 -20 241 Z M-26 242 C-26 242.66 -26 243.32 -26 244 C-24.35 243.67 -22.7 243.34 -21 243 C-21 242.67 -21 242.34 -21 242 C-22.65 242 -24.3 242 -26 242 Z M-133 277 C-132 281 -132 281 -132 281 Z M-157 280 C-157 280.66 -157 281.32 -157 282 C-156.01 282 -155.02 282 -154 282 C-154 281.34 -154 280.68 -154 280 C-154.99 280 -155.98 280 -157 280 Z M-147 284 C-146 286 -146 286 -146 286 Z M-159 290 C-158.34 290.66 -157.68 291.32 -157 292 C-157 291.34 -157 290.68 -157 290 C-157.66 290 -158.32 290 -159 290 Z M3 316 C3.33 316.66 3.66 317.32 4 318 C4.33 317.34 4.66 316.68 5 316 C4.34 316 3.68 316 3 316 Z M12 316 C13 318 13 318 13 318 Z M-19 333 C-19 333.66 -19 334.32 -19 335 C-18.34 335 -17.68 335 -17 335 C-17 334.34 -17 333.68 -17 333 C-17.66 333 -18.32 333 -19 333 Z M-25 336 C-25.33 336.66 -25.66 337.32 -26 338 C-24.68 337.34 -23.36 336.68 -22 336 C-22.99 336 -23.98 336 -25 336 Z " fill="#000000" transform="translate(257,38)"/>
<path d="M0 0 C3.92133189 5.88199783 1.77654387 14.23297482 1 21 C0.34 21 -0.32 21 -1 21 C-1.66 22.98 -2.32 24.96 -3 27 C-4.19365467 23.419036 -3.75340884 21.45158629 -3.125 17.75 C-2.93292969 16.59113281 -2.74085938 15.43226563 -2.54296875 14.23828125 C-2.36378906 13.16964844 -2.18460937 12.10101563 -2 11 C-1.80666487 9.64665409 -1.61759896 8.29267083 -1.4375 6.9375 C-1.08375631 4.56236379 -0.6466179 2.30934964 0 0 Z " fill="#000000" transform="translate(302,314)"/>
<path d="M0 0 C3 1 3 1 4.6875 4.0625 C5.120625 5.031875 5.55375 6.00125 6 7 C4.68 7 3.36 7 2 7 C0.1875 5.1875 0.1875 5.1875 -1 3 C-0.67 2.01 -0.34 1.02 0 0 Z " fill="#000000" transform="translate(335,329)"/>
<path d="M0 0 C2.97 0.495 2.97 0.495 6 1 C5.01 1.66 4.02 2.32 3 3 C1.32576317 4.32381517 -0.34211215 5.65576661 -2 7 C-2.33 6.01 -2.66 5.02 -3 4 C-2.01 3.67 -1.02 3.34 0 3 C0 2.01 0 1.02 0 0 Z " fill="#000000" transform="translate(86,338)"/>
<path d="M0 0 C0.66 0 1.32 0 2 0 C2 0.66 2 1.32 2 2 C1.34 2 0.68 2 0 2 C0.34227572 4.97065509 0.34227572 4.97065509 1 8 C1.66 8.33 2.32 8.66 3 9 C2.34 10.32 1.68 11.64 1 13 C0.67 11.68 0.34 10.36 0 9 C-1.32 9 -2.64 9 -4 9 C-3.71125 8.443125 -3.4225 7.88625 -3.125 7.3125 C-1.9586747 4.91505355 -0.9660119 2.48403061 0 0 Z " fill="#000000" transform="translate(104,349)"/>
<path d="M0 0 C1.31878578 0.76002917 2.6298684 1.53343653 3.9375 2.3125 C4.66839844 2.74175781 5.39929688 3.17101562 6.15234375 3.61328125 C8 5 8 5 9 8 C5.56801397 6.76067171 2.69674368 5.49698489 0 3 C0 2.01 0 1.02 0 0 Z " fill="#000000" transform="translate(133,352)"/>
<path d="M0 0 C3.48539917 0.64544429 6.02819057 2.10134397 9 4 C6 5 6 5 3 5 C1.3125 2.5 1.3125 2.5 0 0 Z " fill="#000000" transform="translate(142,360)"/>
<path d="M0 0 C1.32 0 2.64 0 4 0 C4.33 1.65 4.66 3.3 5 5 C3.35 5.66 1.7 6.32 0 7 C0 4.69 0 2.38 0 0 Z M2 2 C2 5 2 5 2 5 Z " fill="#000000" transform="translate(99,365)"/>
</svg>
